<?xml-stylesheet type="text/css" href="../../colors.css"?>
<svg width="500" height="500" preserveAspectRatio="xMinYMin meet"
viewBox="0 0 500 500" xmlns="http://www.w3.org/2000/svg" xmlns:svg="http://www.w3.org/2000/svg">
 <g>
  <title>Layer 2</title>
  <style>
    :root {
      --col: var(--color-2);
    }

    path {
      fill-opacity: 0;
    }

    path, ellipse, line {
      stroke: var(--col);
      stroke-width: 14;
      stroke-linecap: round;
    }

    #bowl {
      fill: var(--col);
      fill-opacity: 1;
      stroke-width: 0;
    }
  </style>
  <path d="m141.5,241.4375c2,-185 134,-207 141,-103c7,104 200,-1 202,149c2,150 -345,139 -343,-46z" id="svg_2"/>
  <ellipse cx="227" cy="160.34848" id="svg_4" rx="2.5" ry="15.5"/>
  <path d="m323.5,238.4375c91,36 57,94 -61,62" id="svg_10"/>
  <line id="svg_11" x1="334.20669" x2="372.25699" y1="272.88626" y2="283.69265"/>
  <line id="svg_12" x1="309.64523" x2="360.64523" y1="288.90678" y2="302.90678"/>
  <line id="svg_14" x1="352.98551" x2="361.68116" y1="390.84058" y2="475.47826"/>
  <path d="m245.34783,469.68981c6.71617,-51.94796 55.49683,-23.20005 49.48763,9.0783" id="svg_16"/>
  <line id="svg_17" x1="280.9697" x2="267.63636" y1="385.77467" y2="474.0474"/>
  <path d="m335.71522,478.74983c-6.45422,-28.08018 41.49149,-40.71626 53.47793,-9.82806" id="svg_19" transform="rotate(1.95516 362.157 464.846)"/>
  <path d="m154.30303,158.66667c-53.93939,81.81818 -82.42424,95.15151 -12.72727,89.69697" id="svg_20"/>
  <path d="m131.87879,272.60606" id="svg_22" opacity="0.5"/>
  <path d="m119.01581,249.14361c-20.36891,25.87088 17.31752,16.96969 39.74177,58.78788" id="svg_21"/>
  <path d="m130.06061,270.78788" id="svg_23" opacity="0.5"/>
  <path d="m197.02993,116.03125c-28.21453,-88.10064 -6.06107,-95.15873 12.37724,-64.5599c17.95895,-40.00408 49.7692,-58.31452 49.54194,-20.91804c44.69358,-47.57367 54.73092,19.67158 39.31456,80.92358" id="svg_27" transform="rotate(16 244.311 63.1092)"/>
  <path d="m166.23464,318.81564" id="svg_30" opacity="0.5"/>
  <path d="m44.99168,457.83219c7.98243,6.3793 17.75267,11.90505 29.79307,15.86233l3.3166,1.08739l0,6.20515c1.15523,0.33286 2.68477,0.71784 4.56084,1.12117c5.29803,1.10049 13.39267,2.23476 24.34212,2.23476c14.87466,0 24.49504,-2.10488 28.92312,-3.35622l0,-6.20515l3.3166,-1.08739c18.04176,-5.92675 31.0609,-15.40978 40.41994,-25.99826c9.35905,-10.58877 14.96596,-22.29376 17.90902,-32.29661c1.96432,-6.66294 2.74601,-12.57134 2.74601,-16.78081c0,-1.33725 -0.43516,-2.65615 -1.39336,-4.07406c-0.95857,-1.42054 -2.48735,-2.93979 -4.6217,-4.46196c-4.27517,-3.05423 -10.95592,-6.09303 -19.45871,-8.65017c-16.99494,-5.12824 -41.16398,-8.43234 -67.84054,-8.43234c-17.51493,0 -33.93929,1.41791 -47.96378,3.83993c-14.02869,2.43803 -25.67766,5.91335 -33.52809,9.83686c-5.2775,2.60402 -8.77097,5.37752 -10.42604,7.86739c-0.94108,1.38442 -1.3557,2.66954 -1.39678,3.97271l0,0.10134c0,6.31174 1.78744,16.42962 6.63357,27.25223c4.83891,10.83892 12.71635,22.37704 24.66811,31.96171zm130.83228,-44.9489c-3.36414,1.47004 -7.53052,2.83582 -12.31884,4.06649c-4.78489,1.22513 -10.22861,2.31047 -16.13868,3.18702c-3.84686,0.57777 -7.94173,1.08739 -12.20321,1.49072c-2.65738,-3.88943 -5.60766,-7.50309 -8.7915,-10.81504c2.56571,-0.22657 6.08961,-0.50759 10.25638,-0.75191c5.35889,-0.3017 11.792,-0.54632 18.68043,-0.54632c7.9927,0 16.53277,0.36926 24.66203,1.29823c-1.21724,0.69978 -2.59006,1.40481 -4.1466,2.07081l0,0l-0.00001,0zm5.95421,-14.63691c1.35265,0.92867 2.3584,1.84192 3.02446,2.71613c0.84293,1.07196 1.18262,2.0347 1.18262,2.99978c0,0.71522 -0.1765,1.43597 -0.63905,2.20623c-9.88893,-1.43626 -20.39712,-1.90977 -30.03804,-1.90977c-7.0752,0 -13.68861,0.24461 -19.18369,0.57747c-7.41831,0.42167 -12.82171,0.96275 -14.6974,1.15786c-2.99745,-2.7371 -6.11358,-5.26046 -9.27079,-7.55521c5.81459,-0.84044 15.08539,-1.94588 26.05196,-2.45346c3.63954,-0.15842 7.4864,-0.26268 11.44547,-0.26268c10.256,0 21.31766,0.68202 32.12446,2.52365l0,0zm-74.77348,-13.26822c8.173,0 16.0706,0.3148 23.48587,0.8949c12.38693,0.99915 23.46875,2.71643 32.42002,4.97711c-4.50949,-0.26268 -8.97486,-0.38761 -13.25688,-0.38761c-4.11883,0 -8.10148,0.10659 -11.88405,0.29908c-15.38438,0.68406 -27.4244,2.52598 -31.93427,3.29623c-5.28776,-3.43659 -10.43973,-6.27533 -15.08844,-8.64027c5.24021,-0.29907 10.69421,-0.43944 16.25775,-0.43944zm-27.36011,1.2461c13.14086,6.13177 34.59507,17.29568 48.19164,36.01713c-5.54263,0.38499 -11.30625,0.61155 -17.2635,0.68435c-11.96888,-16.56473 -29.4161,-28.14741 -42.78519,-35.28357c3.75214,-0.55941 7.73479,-1.03293 11.85705,-1.41791zm-21.15448,2.97881c12.52616,6.09828 31.29522,17.2619 44.18845,33.72267c-6.82377,-0.09086 -13.41664,-0.40595 -19.66602,-0.91295c-11.51661,-13.44294 -26.35057,-23.13652 -38.07486,-29.40923c3.96211,-1.26445 8.49215,-2.40163 13.55244,-3.40049l0,0l-0.00001,0zm-29.2803,11.75944c1.39678,-1.82124 4.30218,-3.83992 8.5842,-5.73164c10.55498,5.36471 24.61067,13.93451 36.03598,25.87101c-9.04333,-1.06671 -17.1684,-2.5417 -23.99254,-4.32916c-7.19084,-1.89405 -12.91339,-4.13696 -16.59744,-6.43405c-1.85553,-1.13951 -3.18764,-2.29475 -4.03058,-3.36408c-0.8224,-1.06904 -1.16893,-2.03441 -1.18947,-3.01259c0.02092,-0.96479 0.36783,-1.92753 1.18985,-2.99949l0,0z" id="bowl"/>
  <path d="m134.39106,280.82682c-5.5866,42.4581 17.8771,103.9106 29.05029,51.39664c1.11732,31.84357 31.28491,59.77654 29.60894,13.96648" id="svg-32"/>
 </g>
</svg>
